<?xml version="1.0" encoding="UTF-8"?>
<svg id="Layer_1" xmlns="http://www.w3.org/2000/svg" version="1.1" viewBox="0 0 500 500">
  <!-- Generator: Adobe Illustrator 29.1.0, SVG Export Plug-In . SVG Version: 2.1.0 Build 142)  -->
  <defs>
    <style>
      .st0 {
        fill: #010101;
      }

      .st1 {
        fill: #ec2227;
      }
    </style>
  </defs>
  <polygon class="st0" points="97.24 389.47 89.04 389.47 89.04 372.72 73.67 372.72 73.67 389.47 65.44 389.47 65.44 350.65 73.67 350.65 73.67 365.87 89.04 365.87 89.04 350.65 97.24 350.65 97.24 389.47"/>
  <path class="st0" d="M143.36,370.01c0,6.43-1.59,11.36-4.78,14.81-3.18,3.45-7.75,5.18-13.7,5.18s-10.51-1.73-13.7-5.18c-3.18-3.45-4.78-8.41-4.78-14.87s1.6-11.39,4.79-14.8c3.19-3.4,7.77-5.11,13.74-5.11s10.53,1.71,13.68,5.15c3.16,3.43,4.74,8.37,4.74,14.81M115.03,370.01c0,4.33.82,7.6,2.47,9.8,1.65,2.19,4.11,3.29,7.38,3.29,6.57,0,9.85-4.37,9.85-13.09s-3.26-13.12-9.8-13.12c-3.27,0-5.74,1.1-7.41,3.3-1.66,2.2-2.5,5.47-2.5,9.81"/>
  <path class="st0" d="M168.92,389.47l-9.34-30.45h-.24c.34,6.19.5,10.33.5,12.4v18.05h-7.36v-38.82h11.21l9.19,29.68h.16l9.74-29.68h11.2v38.82h-7.67v-18.37c0-.87.01-1.87.04-3,.03-1.14.14-4.14.36-9.03h-.24l-10.01,30.4h-7.54Z"/>
  <polygon class="st0" points="227.2 389.47 204.85 389.47 204.85 350.65 227.2 350.65 227.2 357.4 213.08 357.4 213.08 365.92 226.22 365.92 226.22 372.66 213.08 372.66 213.08 382.67 227.2 382.67 227.2 389.47"/>
  <polygon class="st0" points="251.59 389.47 251.59 350.65 259.82 350.65 259.82 382.67 275.57 382.67 275.57 389.47 251.59 389.47"/>
  <path class="st0" d="M318.63,370.01c0,6.43-1.59,11.36-4.78,14.81-3.18,3.45-7.75,5.18-13.7,5.18s-10.51-1.73-13.7-5.18c-3.18-3.45-4.78-8.41-4.78-14.87s1.6-11.39,4.79-14.8c3.19-3.4,7.77-5.11,13.74-5.11s10.53,1.71,13.69,5.15c3.16,3.43,4.74,8.37,4.74,14.81M290.3,370.01c0,4.33.82,7.6,2.47,9.8,1.65,2.19,4.11,3.29,7.38,3.29,6.57,0,9.85-4.37,9.85-13.09s-3.26-13.12-9.8-13.12c-3.27,0-5.74,1.1-7.41,3.3-1.66,2.2-2.5,5.47-2.5,9.81"/>
  <path class="st0" d="M351.52,389.47l-2.81-9.24h-14.15l-2.81,9.24h-8.87l13.7-38.97h10.06l13.75,38.97h-8.87ZM346.74,373.33c-2.6-8.37-4.07-13.11-4.4-14.2-.32-1.1-.56-1.96-.7-2.6-.58,2.26-2.26,7.86-5.02,16.8h10.11Z"/>
  <path class="st0" d="M400.8,389.47h-10.46l-16.88-29.36h-.24c.34,5.18.5,8.88.5,11.1v18.27h-7.35v-38.82h10.38l16.86,29.07h.19c-.27-5.04-.4-8.61-.4-10.7v-18.37h7.41v38.82Z"/>
  <path class="st0" d="M434.56,378.69c0,3.51-1.26,6.26-3.78,8.28-2.52,2.02-6.03,3.03-10.53,3.03-4.14,0-7.8-.78-10.99-2.34v-7.65c2.62,1.17,4.84,1.99,6.65,2.47,1.81.48,3.47.72,4.98.72,1.81,0,3.19-.34,4.16-1.04.96-.69,1.44-1.72,1.44-3.08,0-.76-.21-1.44-.63-2.03-.43-.59-1.05-1.16-1.87-1.71-.82-.55-2.5-1.43-5.03-2.63-2.37-1.11-4.15-2.19-5.34-3.21-1.18-1.03-2.13-2.23-2.84-3.58-.71-1.36-1.06-2.96-1.06-4.78,0-3.44,1.16-6.13,3.49-8.1,2.33-1.96,5.55-2.95,9.65-2.95,2.02,0,3.95.24,5.78.72,1.83.48,3.75,1.15,5.75,2.02l-2.65,6.4c-2.07-.85-3.78-1.44-5.14-1.78-1.35-.34-2.69-.5-4-.5-1.56,0-2.75.36-3.58,1.09-.83.72-1.25,1.67-1.25,2.84,0,.72.17,1.36.5,1.9.34.54.87,1.06,1.61,1.57.73.5,2.47,1.41,5.22,2.72,3.63,1.73,6.11,3.47,7.46,5.22,1.35,1.75,2.02,3.88,2.02,6.41"/>
  <path class="st1" d="M150.89,196.43c-1.5,0-2.72-1.22-2.72-2.72v-14.04c0-6.21,3.31-12.04,8.64-15.21l80.98-48.23c6.84-4.08,15.58-3.91,22.27.45l78.97,51.45c5.16,3.36,8.65,8.78,9.58,14.87.43,2.81-.4,5.66-2.27,7.8-1.88,2.14-4.68,3.26-7.43,3.29l-13.59-.26c-1.5-.03-2.69-1.27-2.67-2.77.03-1.48,1.24-2.67,2.72-2.67h.05l13.59.26c1.25-.12,2.42-.5,3.23-1.43.82-.93,1.18-2.17.99-3.4-.7-4.56-3.31-8.62-7.17-11.13l-78.97-51.45c-4.95-3.22-11.44-3.36-16.52-.33l-80.98,48.23c-3.69,2.2-5.99,6.24-5.99,10.54v14.04c0,1.5-1.22,2.72-2.72,2.72"/>
  <path class="st1" d="M328.44,115.44h-30.37c-1.5,0-2.72-1.22-2.72-2.72s1.22-2.72,2.72-2.72h30.37c1.5,0,2.72,1.22,2.72,2.72s-1.22,2.72-2.72,2.72"/>
  <path class="st1" d="M323.13,163.72c-1.5,0-2.72-1.22-2.72-2.72v-48.29c0-1.5,1.22-2.72,2.72-2.72s2.72,1.22,2.72,2.72v48.29c0,1.5-1.22,2.72-2.72,2.72"/>
  <path class="st1" d="M305.07,140.37c-1.5,0-2.72-1.22-2.72-2.72v-24.93c0-1.5,1.22-2.72,2.72-2.72s2.72,1.22,2.72,2.72v24.93c0,1.5-1.22,2.72-2.72,2.72"/>
  <path class="st1" d="M234.99,308.57h-65.42c-1.5,0-2.72-1.22-2.72-2.72v-121.48c0-1.5,1.22-2.72,2.72-2.72s2.72,1.22,2.72,2.72v118.76h12.88l.34-82.24c.02-6.18,5.07-11.21,11.26-11.21h29.68c6.21,0,11.26,5.05,11.26,11.26v84.91c0,1.5-1.22,2.72-2.72,2.72M190.62,303.13h41.66v-82.19c0-3.21-2.61-5.82-5.82-5.82h-29.68c-3.2,0-5.81,2.6-5.82,5.79l-.34,82.22Z"/>
  <path class="st1" d="M253.67,266.52h0c-1.5,0-2.72-1.22-2.72-2.72v-47.13c0-.73.3-1.44.82-1.94.52-.52,1.36-.85,1.96-.78l18.68.41c1.5.03,2.69,1.28,2.66,2.78-.03,1.51-1.31,2.81-2.78,2.66l-15.91-.36v44.36c0,1.5-1.22,2.72-2.72,2.72"/>
  <path class="st1" d="M281.71,308.52c-1.48,0-2.69-1.18-2.72-2.67-.03-1.5,1.17-2.74,2.67-2.77l44.06-.78v-19.81c0-1.5,1.22-2.72,2.72-2.72s2.72,1.22,2.72,2.72v22.48c0,1.48-1.19,2.69-2.67,2.72l-46.73.82h-.05Z"/>
  <path class="st1" d="M328.69,266.63c-4.77,0-9.54-1.82-13.17-5.45l-27.84-27.84c-3.52-3.51-5.45-8.19-5.45-13.17s1.93-9.65,5.45-13.17l3.97-3.97c7.03-7.04,19.29-7.04,26.33,0l27.84,27.84c7.26,7.26,7.26,19.07,0,26.33l-3.97,3.97c-3.63,3.63-8.4,5.45-13.17,5.45M304.82,203.02c-3.53,0-6.83,1.38-9.32,3.87l-3.97,3.97c-2.49,2.49-3.86,5.8-3.86,9.32s1.37,6.83,3.86,9.32l27.84,27.84c5.14,5.14,13.51,5.13,18.65,0l3.97-3.97c5.14-5.15,5.14-13.51,0-18.65l-27.84-27.84c-2.49-2.49-5.8-3.87-9.32-3.87M343.9,255.29h.05-.05Z"/>
  <path class="st1" d="M320.32,244.33h0c-2,0-3.87-.77-5.28-2.19l-8.31-8.32c-1.41-1.41-2.19-3.28-2.19-5.28,0-2,.78-3.88,2.19-5.29l1.18-1.18c1.41-1.41,3.28-2.19,5.28-2.19h0c2,0,3.87.78,5.28,2.19l8.32,8.32c1.41,1.41,2.19,3.28,2.19,5.28,0,2-.78,3.88-2.19,5.29l-1.18,1.18c-1.41,1.41-3.29,2.19-5.28,2.19M313.19,225.32h0c-.54,0-1.05.21-1.43.6l-1.19,1.18c-.39.39-.6.9-.6,1.44,0,.54.21,1.04.6,1.43l8.32,8.33c.39.39.89.6,1.43.6h0c.54,0,1.05-.21,1.44-.6l1.18-1.18c.39-.39.6-.9.6-1.44,0-.54-.21-1.05-.6-1.43l-8.32-8.33c-.39-.39-.9-.6-1.44-.6"/>
  <path class="st1" d="M265.02,303.9h-17.6c-.77,0-1.5-.32-2.02-.9-.52-.57-.76-1.33-.69-2.1l1.61-15.78c.06-.62.34-1.2.78-1.64l47.26-47.3c1.06-1.06,2.78-1.06,3.84,0,1.06,1.06,1.06,2.78,0,3.84l-46.57,46.61-1.21,11.82h12.03l.69-11.96c.08-1.41,1.23-2.52,2.64-2.56l13.21-.35v-11.6c0-.81.36-1.58.99-2.1.62-.51,1.44-.72,2.24-.57l9.57,1.83,18.95-18.63c1.07-1.05,2.79-1.05,3.84.03,1.05,1.07,1.04,2.79-.03,3.84l-19.96,19.63c-.64.63-1.55.89-2.42.73l-7.74-1.48v10.97c0,1.47-1.17,2.67-2.65,2.72l-13.36.35-.7,12.03c-.08,1.43-1.27,2.56-2.71,2.56"/>
  <path class="st1" d="M249.03,186.69c-12.82,0-23.26-10.44-23.26-23.26s10.44-23.26,23.26-23.26,23.25,10.44,23.25,23.26-10.43,23.26-23.25,23.26M249.03,145.61c-9.83,0-17.82,7.99-17.82,17.82s7.99,17.82,17.82,17.82,17.81-7.99,17.81-17.82-7.99-17.82-17.81-17.82"/>
  <path class="st1" d="M249.03,175.43c-6.62,0-12-5.38-12-12s5.38-12,12-12,11.99,5.38,11.99,12-5.38,12-11.99,12M249.03,156.88c-3.62,0-6.56,2.94-6.56,6.56s2.94,6.56,6.56,6.56,6.55-2.94,6.55-6.56-2.94-6.56-6.55-6.56"/>
  <path class="st1" d="M220.97,266.52c-4.08,0-7.39-3.31-7.39-7.39s3.31-7.39,7.39-7.39,7.39,3.31,7.39,7.39-3.31,7.39-7.39,7.39M220.97,257.17c-1.08,0-1.95.88-1.95,1.95s.88,1.95,1.95,1.95,1.95-.88,1.95-1.95-.88-1.95-1.95-1.95"/>
</svg>