<?xml version="1.0" encoding="UTF-8"?>
<svg id="Layer_1" xmlns="http://www.w3.org/2000/svg" version="1.1" viewBox="0 0 500 500">
  <!-- Generator: Adobe Illustrator 29.1.0, SVG Export Plug-In . SVG Version: 2.1.0 Build 142)  -->
  <defs>
    <style>
      .st0 {
        fill: #231f20;
      }

      .st1 {
        fill: #eb2227;
      }
    </style>
  </defs>
  <g>
    <path class="st0" d="M76.18,353.88v-32.6h6.91v26.89h13.22v5.71h-20.14Z"/>
    <path class="st0" d="M132.49,337.53c0,5.4-1.34,9.54-4.01,12.44-2.68,2.9-6.51,4.35-11.51,4.35s-8.83-1.45-11.51-4.35c-2.68-2.9-4.01-7.06-4.01-12.49s1.34-9.57,4.03-12.43c2.68-2.86,6.53-4.29,11.54-4.29s8.84,1.44,11.5,4.33c2.65,2.88,3.98,7.03,3.98,12.44ZM108.69,337.53c0,3.64.69,6.39,2.07,8.23,1.38,1.84,3.45,2.76,6.2,2.76,5.52,0,8.27-3.66,8.27-10.99s-2.74-11.02-8.23-11.02c-2.75,0-4.82.93-6.22,2.78-1.4,1.85-2.1,4.6-2.1,8.24Z"/>
    <path class="st0" d="M160.12,353.88l-2.36-7.76h-11.89l-2.36,7.76h-7.45l11.51-32.74h8.45l11.55,32.74h-7.45ZM156.11,340.32c-2.19-7.03-3.42-11.01-3.69-11.93-.28-.92-.47-1.65-.59-2.19-.49,1.9-1.9,6.61-4.22,14.12h8.5Z"/>
    <path class="st0" d="M201.51,353.88h-8.79l-14.18-24.66h-.2c.28,4.36.42,7.46.42,9.32v15.34h-6.18v-32.6h8.72l14.16,24.42h.16c-.22-4.24-.33-7.23-.33-8.99v-15.43h6.22v32.6Z"/>
    <path class="st0" d="M243.37,353.88l-2.36-7.76h-11.89l-2.36,7.76h-7.45l11.51-32.74h8.45l11.55,32.74h-7.45ZM239.35,340.32c-2.19-7.03-3.42-11.01-3.69-11.93-.28-.92-.47-1.65-.59-2.19-.49,1.9-1.9,6.61-4.22,14.12h8.5Z"/>
    <path class="st0" d="M268.21,335.57h12.93v16.9c-2.1.68-4.07,1.16-5.92,1.44-1.85.28-3.74.41-5.68.41-4.92,0-8.68-1.45-11.27-4.34-2.59-2.89-3.89-7.04-3.89-12.46s1.51-9.37,4.52-12.31c3.01-2.94,7.18-4.42,12.52-4.42,3.35,0,6.57.67,9.68,2.01l-2.3,5.53c-2.38-1.19-4.85-1.78-7.43-1.78-2.99,0-5.38,1-7.18,3.01-1.8,2.01-2.7,4.71-2.7,8.1s.72,6.24,2.17,8.11c1.45,1.87,3.56,2.8,6.32,2.8,1.44,0,2.91-.15,4.39-.45v-6.8h-6.18v-5.75Z"/>
    <path class="st0" d="M309.78,353.88l-2.36-7.76h-11.89l-2.36,7.76h-7.45l11.51-32.74h8.45l11.55,32.74h-7.45ZM305.76,340.32c-2.19-7.03-3.42-11.01-3.69-11.93-.28-.92-.47-1.65-.59-2.19-.49,1.9-1.9,6.61-4.21,14.12h8.5Z"/>
    <path class="st0" d="M322.24,353.88v-32.6h6.91v32.6h-6.91Z"/>
    <path class="st0" d="M367.2,353.88h-8.79l-14.18-24.66h-.2c.28,4.36.42,7.46.42,9.32v15.34h-6.18v-32.6h8.72l14.16,24.42h.16c-.22-4.24-.33-7.23-.33-8.99v-15.43h6.22v32.6Z"/>
    <path class="st0" d="M395.56,344.83c0,2.94-1.06,5.26-3.18,6.96-2.12,1.7-5.07,2.54-8.84,2.54-3.48,0-6.56-.65-9.23-1.96v-6.42c2.2.98,4.06,1.67,5.59,2.07,1.52.4,2.92.6,4.18.6,1.52,0,2.68-.29,3.49-.87.81-.58,1.21-1.44,1.21-2.59,0-.64-.18-1.21-.54-1.71s-.88-.98-1.57-1.44-2.1-1.2-4.23-2.21c-1.99-.94-3.49-1.84-4.48-2.7-1-.86-1.79-1.87-2.39-3.01-.59-1.14-.89-2.48-.89-4.01,0-2.88.98-5.15,2.93-6.8s4.66-2.48,8.11-2.48c1.69,0,3.31.2,4.85.6,1.54.4,3.15.97,4.83,1.69l-2.23,5.37c-1.74-.71-3.18-1.21-4.32-1.49-1.14-.28-2.26-.42-3.36-.42-1.31,0-2.31.31-3.01.92-.7.61-1.05,1.4-1.05,2.39,0,.61.14,1.14.42,1.59s.73.89,1.35,1.32c.62.42,2.08,1.19,4.38,2.29,3.05,1.46,5.14,2.92,6.27,4.38,1.13,1.46,1.69,3.26,1.69,5.39Z"/>
    <path class="st0" d="M414.97,353.88h-6.91v-26.85h-8.85v-5.75h24.62v5.75h-8.85v26.85Z"/>
    <path class="st0" d="M154.57,377.12c0,3.51-1.1,6.19-3.29,8.05-2.19,1.86-5.31,2.79-9.36,2.79h-2.97v11.6h-6.91v-32.6h10.41c3.95,0,6.96.85,9.02,2.55,2.06,1.7,3.09,4.24,3.09,7.62ZM138.96,382.29h2.27c2.13,0,3.72-.42,4.77-1.26,1.06-.84,1.58-2.06,1.58-3.67s-.44-2.82-1.33-3.59c-.88-.77-2.27-1.16-4.16-1.16h-3.14v9.68Z"/>
    <path class="st0" d="M168.55,387.04v12.51h-6.91v-32.6h9.5c4.43,0,7.71.81,9.83,2.42,2.13,1.61,3.19,4.06,3.19,7.35,0,1.92-.53,3.62-1.58,5.12-1.06,1.49-2.55,2.67-4.48,3.51,4.91,7.33,8.1,12.06,9.59,14.21h-7.67l-7.78-12.51h-3.68ZM168.55,381.42h2.23c2.19,0,3.8-.36,4.84-1.09,1.04-.73,1.56-1.87,1.56-3.43s-.53-2.65-1.59-3.3c-1.06-.65-2.71-.98-4.94-.98h-2.1v8.81Z"/>
    <path class="st0" d="M222.29,383.21c0,5.4-1.34,9.54-4.01,12.44-2.68,2.9-6.51,4.35-11.51,4.35s-8.83-1.45-11.51-4.35c-2.68-2.9-4.01-7.06-4.01-12.49s1.34-9.57,4.03-12.43c2.68-2.86,6.53-4.29,11.54-4.29s8.84,1.44,11.5,4.33c2.65,2.88,3.98,7.03,3.98,12.44ZM198.5,383.21c0,3.64.69,6.39,2.07,8.23,1.38,1.84,3.45,2.76,6.2,2.76,5.52,0,8.27-3.66,8.27-10.99s-2.74-11.02-8.23-11.02c-2.75,0-4.82.93-6.22,2.78-1.4,1.85-2.1,4.6-2.1,8.24Z"/>
    <path class="st0" d="M252.49,377.12c0,3.51-1.1,6.19-3.29,8.05-2.19,1.86-5.31,2.79-9.36,2.79h-2.97v11.6h-6.91v-32.6h10.41c3.95,0,6.96.85,9.02,2.55,2.06,1.7,3.09,4.24,3.09,7.62ZM236.88,382.29h2.27c2.13,0,3.72-.42,4.77-1.26,1.06-.84,1.58-2.06,1.58-3.67s-.44-2.82-1.33-3.59c-.88-.77-2.27-1.16-4.16-1.16h-3.14v9.68Z"/>
    <path class="st0" d="M278.33,399.55h-18.78v-32.6h18.78v5.66h-11.86v7.16h11.04v5.66h-11.04v8.41h11.86v5.71Z"/>
    <path class="st0" d="M292.96,387.04v12.51h-6.91v-32.6h9.5c4.43,0,7.71.81,9.84,2.42,2.13,1.61,3.19,4.06,3.19,7.35,0,1.92-.53,3.62-1.58,5.12s-2.55,2.67-4.48,3.51c4.91,7.33,8.1,12.06,9.59,14.21h-7.67l-7.78-12.51h-3.68ZM292.96,381.42h2.23c2.19,0,3.8-.36,4.84-1.09,1.04-.73,1.56-1.87,1.56-3.43s-.53-2.65-1.59-3.3c-1.06-.65-2.71-.98-4.94-.98h-2.1v8.81Z"/>
    <path class="st0" d="M329.69,399.55h-6.91v-26.85h-8.85v-5.75h24.62v5.75h-8.85v26.85Z"/>
    <path class="st0" d="M354.62,380.37l6.8-13.42h7.45l-10.82,19.91v12.69h-6.87v-12.47l-10.82-20.14h7.49l6.76,13.42Z"/>
  </g>
  <g>
    <path class="st1" d="M210.59,148.04c-5.34,0-10.1-3.51-11.86-8.76l-12.12-36.27c-.32-.95.02-2,.84-2.58.82-.58,1.92-.56,2.72.06l13.55,10.49,12.57-6.82c.72-.39,1.6-.36,2.29.07,5.55,3.44,12.66,7.23,14.47,7.35,1.32.18,5.53-3.27,8.9-6.98.64-.71,1.67-.93,2.55-.58l12.46,5.06,16.74-8.76c.81-.43,1.8-.32,2.51.26.71.58,1,1.53.74,2.41l-10.61,36.18c-1.51,5.14-6,8.61-11.18,8.64l-44.52.24h-.07ZM193.33,108.69l9.73,29.13c1.13,3.38,4.15,5.65,7.53,5.65h.04l44.52-.24c3.14-.02,5.88-2.17,6.82-5.36l9.1-31.02-12.91,6.76c-.6.31-1.3.35-1.92.09l-11.98-4.87c-2.83,2.93-7.88,7.46-11.49,7.3-3.39-.22-11.65-5.02-15.45-7.33l-12.72,6.9c-.79.43-1.77.35-2.49-.2l-8.78-6.8Z"/>
    <path class="st1" d="M267.05,166.97h-70.55c-6.51,0-11.8-5.29-11.8-11.8s5.29-11.8,11.8-11.8h70.55c6.51,0,11.8,5.29,11.8,11.8s-5.29,11.8-11.8,11.8ZM196.5,147.94c-3.99,0-7.23,3.24-7.23,7.23s3.24,7.23,7.23,7.23h70.55c3.99,0,7.23-3.24,7.23-7.23s-3.24-7.23-7.23-7.23h-70.55Z"/>
    <path class="st1" d="M264.33,290.96h-56.44c-29.03,0-52.64-23.62-52.64-52.64v-8.39c0-27.14,13.45-52.43,35.96-67.64,1.05-.7,2.47-.43,3.17.62.7,1.04.43,2.46-.62,3.17-21.26,14.36-33.95,38.23-33.95,63.86v8.39c0,26.51,21.57,48.07,48.08,48.07h56.44c2.01,0,4.01-.17,5.94-.5,1.23-.25,2.43.62,2.64,1.86.22,1.24-.62,2.42-1.86,2.64-2.19.38-4.46.58-6.72.58Z"/>
    <path class="st1" d="M301.23,216.08c-1.26,0-2.28-1.02-2.28-2.28,0-.8-.02-1.03-.05-1.49l-.06-.86c-1.06-18.59-10.33-35.57-25.42-46.6-1.02-.74-1.24-2.17-.5-3.19.74-1.01,2.17-1.24,3.19-.5,16.2,11.83,26.14,30.07,27.28,50.03l.05.8c.04.56.06.84.06,1.81,0,1.26-1.02,2.28-2.28,2.28Z"/>
    <path class="st1" d="M298.68,299.63c-24.15,0-43.8-19.65-43.8-43.8s19.65-43.8,43.8-43.8,43.8,19.65,43.8,43.8-19.65,43.8-43.8,43.8ZM298.68,216.59c-21.63,0-39.23,17.6-39.23,39.23s17.6,39.23,39.23,39.23,39.23-17.6,39.23-39.23-17.6-39.23-39.23-39.23Z"/>
    <g>
      <path class="st1" d="M326.83,253.34c-.58,0-1.17-.22-1.62-.67l-23.97-24.02-23.99,24.02c-.89.89-2.34.89-3.23,0-.89-.89-.89-2.34,0-3.23l25.61-25.64c.43-.43,1.01-.67,1.62-.67h0c.61,0,1.19.24,1.62.67l25.58,25.64c.89.89.89,2.34,0,3.23-.45.44-1.03.67-1.61.67Z"/>
      <path class="st1" d="M282.47,281.57c-.6,0-1.19-.24-1.61-.67s-.67-1.01-.67-1.61v-35.07c0-1.26,1.02-2.28,2.28-2.28s2.28,1.02,2.28,2.28v32.79h8.75s.38-17.1.38-17.1c.03-1.24,1.04-2.23,2.28-2.23h10.22c1.25,0,2.26,1,2.28,2.25l.27,17.06h7.66s0-32.75,0-32.75c0-1.26,1.02-2.28,2.28-2.28s2.28,1.02,2.28,2.28v35.05c0,.61-.24,1.19-.67,1.61-.43.43-1.01.67-1.61.67h0l-12.19-.02c-1.24,0-2.26-1-2.28-2.25l-.27-17.06h-5.74l-.38,17.09c-.03,1.24-1.04,2.23-2.28,2.23h-13.26Z"/>
      <path class="st1" d="M306.67,245.45h-10.88c-1.26,0-2.28-1.02-2.28-2.28v-4.94c0-1.26,1.02-2.28,2.28-2.28h10.88c1.26,0,2.28,1.02,2.28,2.28v4.94c0,1.26-1.02,2.28-2.28,2.28ZM298.08,240.88h6.31v-.37h-6.31v.37Z"/>
    </g>
    <g>
      <path class="st1" d="M267.97,182.82h-69.81c-1.26,0-2.28-1.02-2.28-2.28s1.02-2.28,2.28-2.28h69.81c1.26,0,2.28,1.02,2.28,2.28s-1.02,2.28-2.28,2.28Z"/>
      <path class="st1" d="M267.17,210.51h-67.96c-1.26,0-2.28-1.02-2.28-2.28s1.02-2.28,2.28-2.28h67.96c1.26,0,2.28,1.02,2.28,2.28s-1.02,2.28-2.28,2.28Z"/>
      <path class="st1" d="M246.49,290.48c-.64,0-1.28-.27-1.73-.79l-44.4-51.44c-.83-.95-.72-2.4.24-3.22.95-.83,2.4-.72,3.22.24l44.4,51.44c.83.96.72,2.4-.24,3.22-.43.37-.96.55-1.49.55Z"/>
      <path class="st1" d="M206.42,239.04c-2.5,0-5.01-.14-7.46-.41-1.25-.14-2.16-1.27-2.02-2.52.14-1.25,1.26-2.15,2.52-2.02,2.29.26,4.63.39,6.96.39,22.25,0,40.35-11.59,40.35-25.83s-18.1-25.83-40.35-25.83c-1.42,0-2.82.05-4.21.14-1.19.1-2.35-.87-2.43-2.13-.08-1.26.87-2.35,2.13-2.43,1.48-.1,2.99-.15,4.51-.15,24.77,0,44.92,13.63,44.92,30.4s-20.15,30.39-44.92,30.39Z"/>
    </g>
  </g>
</svg>