<?xml version="1.0" encoding="UTF-8"?>
<svg id="Layer_1" xmlns="http://www.w3.org/2000/svg" version="1.1" viewBox="0 0 500 500">
  <!-- Generator: Adobe Illustrator 29.1.0, SVG Export Plug-In . SVG Version: 2.1.0 Build 142)  -->
  <defs>
    <style>
      .st0 {
        fill: #231f20;
      }

      .st1 {
        fill: #e32227;
      }
    </style>
  </defs>
  <g>
    <g>
      <path class="st0" d="M117.08,386.06v4.15h-8.6v5.25h9.59v4.18h-14.74v-22.38h14.28v4.18h-9.13v4.61h8.6Z"/>
      <path class="st0" d="M126.34,399.63h-4.75v-22.38h6.11l5.39,9.15c1.03,1.78,2.11,4.05,3.24,6.79h.07c-.27-2.35-.4-5.42-.4-9.23v-6.71h4.75v22.38h-5.44c-3.8-6.58-6.06-10.55-6.79-11.91-.73-1.36-1.49-2.94-2.27-4.76h-.13c.15,2.82.23,6.06.23,9.73v6.94Z"/>
      <path class="st0" d="M149.75,399.63v-18.09h-6.27v-4.28h17.79v4.28h-6.37v18.09h-5.15Z"/>
      <path class="st0" d="M177.73,386.06v4.15h-8.6v5.25h9.59v4.18h-14.74v-22.38h14.28v4.18h-9.13v4.61h8.6Z"/>
      <path class="st0" d="M182.25,399.63v-22.08c1.88-.33,4.19-.5,6.94-.5,3.39,0,5.82.56,7.3,1.68,1.48,1.12,2.22,2.72,2.22,4.8,0,1.24-.37,2.36-1.12,3.36-.75,1-1.71,1.71-2.9,2.12v.13c1.39.52,2.4,1.89,3.02,4.12,1.14,4.01,1.76,6.13,1.86,6.37h-5.25c-.44-.83-.97-2.57-1.59-5.21-.31-1.33-.73-2.26-1.26-2.79-.53-.53-1.38-.8-2.56-.8h-1.59v8.8h-5.08ZM187.33,381.01v6.14h2.12c1.28,0,2.3-.29,3.04-.87.74-.58,1.11-1.36,1.11-2.35s-.33-1.75-1-2.28c-.67-.54-1.62-.81-2.85-.81s-2.01.06-2.42.17Z"/>
      <path class="st0" d="M202.43,399.63v-22.11c2.11-.31,4.48-.47,7.1-.47,3.28,0,5.65.66,7.14,1.99,1.48,1.33,2.22,3.01,2.22,5.05,0,2.49-.85,4.4-2.55,5.72-1.7,1.32-4.04,1.98-7.01,1.98-.59,0-1.2-.04-1.83-.13v7.97h-5.08ZM207.51,381.11v6.61c.37.09.96.13,1.79.13,1.39,0,2.5-.32,3.3-.96.81-.64,1.21-1.53,1.21-2.66,0-1.04-.36-1.85-1.08-2.42-.72-.58-1.73-.86-3.04-.86-1.04,0-1.77.06-2.19.17Z"/>
      <path class="st0" d="M222.18,399.63v-22.08c1.88-.33,4.19-.5,6.94-.5,3.39,0,5.82.56,7.3,1.68,1.48,1.12,2.22,2.72,2.22,4.8,0,1.24-.37,2.36-1.12,3.36-.75,1-1.71,1.71-2.9,2.12v.13c1.39.52,2.4,1.89,3.02,4.12,1.14,4.01,1.76,6.13,1.86,6.37h-5.25c-.44-.83-.97-2.57-1.59-5.21-.31-1.33-.73-2.26-1.26-2.79-.53-.53-1.38-.8-2.56-.8h-1.59v8.8h-5.08ZM227.26,381.01v6.14h2.12c1.28,0,2.3-.29,3.04-.87.74-.58,1.11-1.36,1.11-2.35s-.33-1.75-1-2.28c-.67-.54-1.62-.81-2.85-.81s-2.01.06-2.42.17Z"/>
      <path class="st0" d="M242.37,377.26h5.15v22.38h-5.15v-22.38Z"/>
      <path class="st0" d="M251.13,398.57l1.06-4.22c1.91.97,3.86,1.46,5.84,1.46,1.14,0,2.03-.22,2.66-.65.64-.43.95-1.02.95-1.78,0-.67-.29-1.24-.86-1.69-.58-.45-1.57-.92-2.99-1.39-4.27-1.42-6.41-3.64-6.41-6.67,0-1.96.79-3.57,2.36-4.84,1.57-1.27,3.66-1.9,6.27-1.9,2.28,0,4.27.39,5.98,1.16l-1.16,4.08c-1.56-.73-3.19-1.1-4.88-1.1-1.04,0-1.85.2-2.44.6-.59.4-.88.92-.88,1.56,0,.59.25,1.09.74,1.5.49.42,1.67.95,3.54,1.62,2.07.73,3.58,1.64,4.54,2.71s1.44,2.42,1.44,4.03c0,2.06-.81,3.73-2.42,5.01-1.62,1.28-3.87,1.93-6.77,1.93-2.48,0-4.67-.48-6.57-1.43Z"/>
      <path class="st0" d="M284.2,386.06v4.15h-8.6v5.25h9.59v4.18h-14.74v-22.38h14.28v4.18h-9.13v4.61h8.6Z"/>
      <path class="st0" d="M295.58,399.63v-22.38h5.15v18.06h9.26v4.32h-14.41Z"/>
      <path class="st0" d="M333.03,388.25c0,3.55-1.04,6.4-3.13,8.54-2.09,2.14-4.83,3.21-8.23,3.21s-5.95-1.07-7.97-3.2c-2.01-2.13-3.02-4.86-3.02-8.19s1.05-6.21,3.15-8.42c2.1-2.2,4.81-3.3,8.13-3.3s6.02,1.06,8.03,3.19c2.01,2.12,3.02,4.85,3.02,8.17ZM316.1,388.48c0,2.19.53,3.98,1.58,5.38,1.05,1.39,2.43,2.09,4.13,2.09s3.14-.69,4.18-2.07c1.04-1.38,1.56-3.2,1.56-5.46s-.52-3.96-1.57-5.36c-1.05-1.4-2.43-2.11-4.14-2.11s-3.12.71-4.17,2.12c-1.05,1.41-1.58,3.22-1.58,5.42Z"/>
      <path class="st0" d="M347.7,393.79h-6.71l-1.66,5.84h-5.35l7.07-22.38h6.77l7.27,22.38h-5.58l-1.83-5.84ZM341.75,390.01h5.15c-1.35-4.37-2.22-7.37-2.62-9h-.07l-1.06,4.25-1.39,4.75Z"/>
      <path class="st0" d="M362.87,399.63h-4.75v-22.38h6.11l5.39,9.15c1.03,1.78,2.11,4.05,3.24,6.79h.07c-.27-2.35-.4-5.42-.4-9.23v-6.71h4.75v22.38h-5.44c-3.8-6.58-6.06-10.55-6.79-11.91-.73-1.36-1.49-2.94-2.27-4.76h-.13c.16,2.82.23,6.06.23,9.73v6.94Z"/>
      <path class="st0" d="M390.69,385.96c-1.87-.66-3.05-1.2-3.54-1.62-.49-.42-.74-.92-.74-1.5,0-.64.29-1.16.88-1.56.59-.4,1.4-.6,2.44-.6,1.69,0,3.32.37,4.88,1.1l1.16-4.08c-1.7-.77-3.7-1.16-5.98-1.16-2.61,0-4.7.63-6.27,1.9-1.57,1.27-2.36,2.88-2.36,4.84,0,3.03,2.14,5.26,6.41,6.67,1.42.48,2.41.94,2.99,1.4.58.45.86,1.02.86,1.69,0,.75-.32,1.34-.95,1.78s-1.52.65-2.66.65c-1.98,0-3.93-.49-5.84-1.46l-1.06,4.22c1.9.95,4.09,1.43,6.57,1.43,2.9,0,5.16-.64,6.77-1.93,1.62-1.28,2.42-2.95,2.42-5.01,0-1.6-.48-2.95-1.44-4.03-.96-1.08-2.47-1.98-4.54-2.71Z"/>
    </g>
    <g>
      <path class="st0" d="M108.99,357.12l.8,3.98c-1.53.69-3.53,1.03-6.01,1.03-3.77,0-6.74-1.03-8.89-3.08-2.15-2.05-3.23-4.78-3.23-8.18,0-3.59,1.17-6.46,3.52-8.62,2.35-2.16,5.37-3.24,9.06-3.24,2.49,0,4.43.34,5.81,1.03l-1.06,4.05c-1.38-.6-2.89-.9-4.52-.9-2.25,0-4.04.65-5.39,1.96-1.34,1.31-2.02,3.11-2.02,5.41s.66,4.03,1.98,5.34c1.32,1.31,3.14,1.97,5.45,1.97,1.67,0,3.16-.25,4.48-.76Z"/>
      <path class="st0" d="M122.44,339.03c-3.32,0-6.03,1.1-8.13,3.3-2.1,2.2-3.15,5.01-3.15,8.42s1.01,6.06,3.02,8.19c2.01,2.13,4.67,3.2,7.97,3.2s6.14-1.07,8.23-3.21c2.09-2.14,3.13-4.99,3.13-8.54,0-3.32-1.01-6.04-3.02-8.17-2.01-2.12-4.69-3.19-8.03-3.19ZM126.45,356.01c-1.04,1.38-2.43,2.07-4.18,2.07s-3.08-.7-4.13-2.09c-1.05-1.39-1.58-3.19-1.58-5.38s.53-4.01,1.58-5.42c1.05-1.41,2.44-2.12,4.17-2.12s3.1.7,4.14,2.11c1.05,1.41,1.57,3.19,1.57,5.36s-.52,4.08-1.56,5.46Z"/>
      <path class="st0" d="M151.32,346.1c0,3.81.13,6.88.4,9.23h-.07c-1.13-2.74-2.21-5.01-3.24-6.79l-5.39-9.15h-6.11v22.38h4.75v-6.94c0-3.66-.08-6.91-.23-9.73h.13c.79,1.81,1.54,3.4,2.27,4.76.73,1.36,2.99,5.33,6.79,11.91h5.44v-22.38h-4.75v6.71Z"/>
      <path class="st0" d="M169.48,348.46c-1.87-.66-3.05-1.2-3.54-1.62-.49-.42-.74-.92-.74-1.5,0-.64.29-1.16.88-1.56.59-.4,1.4-.6,2.44-.6,1.69,0,3.32.37,4.88,1.1l1.16-4.08c-1.7-.77-3.7-1.16-5.98-1.16-2.61,0-4.7.63-6.27,1.9-1.57,1.27-2.36,2.88-2.36,4.84,0,3.03,2.14,5.26,6.41,6.67,1.42.48,2.41.94,2.99,1.4.58.45.86,1.02.86,1.69,0,.75-.32,1.34-.95,1.78s-1.52.65-2.66.65c-1.98,0-3.93-.49-5.84-1.46l-1.06,4.22c1.9.95,4.09,1.43,6.57,1.43,2.9,0,5.16-.64,6.77-1.93,1.62-1.28,2.42-2.95,2.42-5.01,0-1.6-.48-2.95-1.44-4.03-.96-1.08-2.47-1.98-4.54-2.71Z"/>
      <path class="st0" d="M192.75,352.08c0,4.01-1.45,6.01-4.35,6.01-1.37,0-2.42-.51-3.15-1.54-.73-1.03-1.1-2.52-1.1-4.46v-12.68h-5.15v12.35c0,6.93,3.08,10.39,9.23,10.39,3.14,0,5.54-.88,7.19-2.63,1.65-1.75,2.47-4.32,2.47-7.69v-12.42h-5.15v12.68Z"/>
      <path class="st0" d="M219.21,339.39l-2.56,7.65c-.58,1.73-1.27,4.32-2.09,7.78h-.13c-.35-1.87-.71-3.48-1.05-4.84-.35-1.35-1.38-4.89-3.1-10.6h-6.97l-1.43,22.38h4.78l.43-8.4c.1-1.97.22-5.19.37-9.66h.07c.48,2.36.9,4.27,1.26,5.74.37,1.47,1.47,5.46,3.32,11.95h4.02c3.09-9.42,4.9-15.31,5.44-17.69h.1c0,3.17.18,9.19.53,18.06h5.05l-1.2-22.38h-6.84Z"/>
      <polygon class="st0" points="236.41 352.34 245.01 352.34 245.01 348.19 236.41 348.19 236.41 343.58 245.54 343.58 245.54 339.39 231.26 339.39 231.26 361.77 246 361.77 246 357.59 236.41 357.59 236.41 352.34"/>
      <path class="st0" d="M261.97,351.28v-.13c1.18-.41,2.15-1.11,2.9-2.12.75-1,1.12-2.12,1.12-3.36,0-2.08-.74-3.68-2.22-4.8-1.48-1.12-3.92-1.68-7.3-1.68-2.74,0-5.06.17-6.94.5v22.08h5.08v-8.8h1.59c1.17,0,2.03.27,2.56.8.53.53.95,1.46,1.26,2.79.62,2.65,1.15,4.38,1.59,5.21h5.25c-.1-.24-.72-2.37-1.86-6.37-.62-2.22-1.63-3.6-3.02-4.12ZM259.76,348.42c-.74.58-1.75.87-3.04.87h-2.12v-6.14c.41-.11,1.22-.17,2.42-.17s2.18.27,2.85.8c.67.54,1,1.3,1,2.28s-.37,1.77-1.11,2.35Z"/>
      <path class="st0" d="M296.99,348.76h-4.58c-.4,2.19-1.07,4.03-2.03,5.51l-3.78-4.15.03-.1c2.99-1.46,4.48-3.37,4.48-5.74,0-1.56-.58-2.82-1.74-3.79s-2.65-1.45-4.47-1.45c-2.08,0-3.75.59-5,1.76-1.25,1.17-1.88,2.57-1.88,4.18s.58,2.95,1.73,4.25v.13c-2.9,1.48-4.35,3.63-4.35,6.44,0,1.8.71,3.31,2.12,4.52,1.42,1.21,3.37,1.82,5.88,1.82s4.58-.66,6.31-1.99c.52.62,1.03,1.16,1.53,1.63h5.98c-.94-1-2.29-2.48-4.05-4.45,1.88-2.01,3.15-4.87,3.82-8.57ZM283.26,342.87c.38-.44.89-.66,1.52-.66.6,0,1.08.22,1.44.65.37.43.55.95.55,1.54s-.19,1.16-.57,1.64c-.38.49-1.02,1.02-1.92,1.61-1.06-1.08-1.59-2.15-1.59-3.19,0-.63.19-1.17.57-1.6ZM284.11,358.42c-1.14,0-2.06-.33-2.76-1-.7-.66-1.05-1.49-1.05-2.49,0-1.21.61-2.25,1.83-3.12,2.35,2.6,4.06,4.43,5.15,5.48-.82.75-1.87,1.13-3.15,1.13Z"/>
      <path class="st0" d="M315.48,348.46c-1.87-.66-3.05-1.2-3.54-1.62-.49-.42-.74-.92-.74-1.5,0-.64.29-1.16.88-1.56.59-.4,1.4-.6,2.44-.6,1.69,0,3.32.37,4.88,1.1l1.16-4.08c-1.7-.77-3.7-1.16-5.98-1.16-2.61,0-4.7.63-6.27,1.9-1.57,1.27-2.36,2.88-2.36,4.84,0,3.03,2.14,5.26,6.41,6.67,1.42.48,2.41.94,2.99,1.4.58.45.86,1.02.86,1.69,0,.75-.32,1.34-.95,1.78-.64.43-1.52.65-2.66.65-1.98,0-3.93-.49-5.84-1.46l-1.06,4.22c1.9.95,4.09,1.43,6.57,1.43,2.9,0,5.16-.64,6.77-1.93,1.62-1.28,2.42-2.95,2.42-5.01,0-1.6-.48-2.95-1.44-4.03-.96-1.08-2.47-1.98-4.54-2.71Z"/>
      <path class="st0" d="M341.88,339.39l-2.56,7.65c-.58,1.73-1.27,4.32-2.09,7.78h-.13c-.35-1.87-.71-3.48-1.05-4.84-.35-1.35-1.38-4.89-3.1-10.6h-6.97l-1.43,22.38h4.78l.43-8.4c.1-1.97.22-5.19.36-9.66h.07c.48,2.36.9,4.27,1.26,5.74.37,1.47,1.47,5.46,3.32,11.95h4.02c3.09-9.42,4.9-15.31,5.44-17.69h.1c0,3.17.18,9.19.53,18.06h5.05l-1.2-22.38h-6.84Z"/>
      <path class="st0" d="M359.41,339.39l-7.07,22.38h5.35l1.66-5.84h6.71l1.83,5.84h5.58l-7.27-22.38h-6.77ZM360.1,352.14l1.39-4.75,1.06-4.25h.07c.4,1.63,1.27,4.63,2.62,9h-5.15Z"/>
      <polygon class="st0" points="381.61 339.39 376.47 339.39 376.47 361.77 390.88 361.77 390.88 357.45 381.61 357.45 381.61 339.39"/>
      <polygon class="st0" points="399.08 357.45 399.08 339.39 393.93 339.39 393.93 361.77 408.34 361.77 408.34 357.45 399.08 357.45"/>
    </g>
  </g>
  <g>
    <path class="st1" d="M204.25,177.7c.02-1.36-.85-2.18-2.51-2.18-7.38-.02-14.75-.02-22.13,0-1.65,0-2.57.8-2.59,2.12-.02,1.37.92,2.14,2.67,2.14,3.64,0,7.28,0,10.92,0s7.37,0,11.06,0c1.69,0,2.56-.72,2.58-2.08Z"/>
    <path class="st1" d="M177.02,244.35c0,1.32.93,2.14,2.57,2.14,7.38.02,14.75.02,22.13,0,1.66,0,2.54-.82,2.54-2.16,0-1.36-.88-2.09-2.56-2.1-3.69-.01-7.37,0-11.06,0s-7.37,0-11.06,0c-1.65,0-2.56.78-2.55,2.11Z"/>
    <path class="st1" d="M170.4,205.47c3.6.01,7.19,0,10.79,0s7.09.01,10.64,0c1.63,0,2.46-.69,2.51-1.99.06-1.37-.81-2.23-2.45-2.24-7.19-.03-14.39-.03-21.58,0-1.53,0-2.46.87-2.49,2.1-.02,1.28.97,2.12,2.57,2.13Z"/>
    <path class="st1" d="M191.72,220.78c1.77,0,2.67-.82,2.63-2.22-.05-1.35-.89-2.01-2.64-2.02-3.5-.01-7,0-10.5,0s-7.19,0-10.79,0c-1.62,0-2.6.83-2.6,2.1,0,1.28.97,2.13,2.61,2.13,7.1.02,14.19.02,21.29,0Z"/>
    <path class="st1" d="M192.43,194.67c1.46.04,2.91,0,4.37,0,1.51,0,3.01.03,4.52-.01,1.32-.04,2.17-.88,2.19-2.05.02-1.14-.82-2.11-2.12-2.14-3.01-.07-6.02-.07-9.03,0-1.43.03-2.21.94-2.15,2.22.05,1.21.84,1.95,2.22,1.98Z"/>
    <path class="st1" d="M190.2,229.38c-.03,1.32.8,2.13,2.36,2.18,1.41.05,2.82,0,4.22,0s2.92.04,4.37-.01c1.48-.05,2.42-.99,2.35-2.22-.06-1.21-.95-1.99-2.4-2-2.82-.03-5.63-.02-8.45,0-1.61.01-2.43.72-2.46,2.05Z"/>
    <path class="st1" d="M226.39,226.71v3.83c0,13.24,10.77,24.01,24.01,24.01h21.05c13.24,0,24.01-10.77,24.01-24.01v-3.83c0-11.76-5.55-22.75-14.91-29.77,1.33-.98,2.21-2.55,2.21-4.32,0-2.97-2.41-5.38-5.38-5.38h-1.33c.44-.56.8-1.19,1.01-1.92l4.84-16.5c.12-.4-.01-.83-.34-1.1-.32-.27-.77-.31-1.14-.12l-7.63,4-5.68-2.31c-.41-.16-.87-.06-1.16.27-1.54,1.69-3.46,3.27-4.06,3.19-.83-.06-4.07-1.78-6.6-3.35-.32-.2-.72-.21-1.04-.03l-5.73,3.11-6.18-4.79c-.36-.28-.87-.29-1.24-.02-.37.26-.53.74-.38,1.18l5.53,16.54c.23.7.6,1.32,1.04,1.87h-2.05c-2.97,0-5.38,2.41-5.38,5.38,0,1.62.73,3.05,1.87,4.04-9.6,7-15.3,18.13-15.3,30.05ZM243.76,171.42l4,3.1c.33.25.77.29,1.13.09l5.8-3.14c1.73,1.05,5.5,3.24,7.05,3.34,1.64.08,3.95-1.99,5.24-3.33l5.46,2.22c.28.12.6.1.88-.04l5.89-3.08-4.15,14.15c-.43,1.45-1.68,2.43-3.11,2.44l-11.21.06h-9.69c-1.3-.22-2.41-1.18-2.86-2.53l-4.44-13.29ZM245.2,189.31h5.83c.2.02.39.05.59.05h.03l8.96-.05h16.76c1.82,0,3.3,1.48,3.3,3.3,0,1.42-.91,2.63-2.18,3.09-.21,0-.42.04-.6.16-.17.03-.34.05-.52.05h-32.17c-1.82,0-3.3-1.48-3.3-3.3s1.48-3.3,3.3-3.3ZM243.72,197.76c.47.14.97.23,1.48.23h32.17c.32,0,.64-.04.95-.1,9.43,6.58,15.05,17.3,15.05,28.81v3.83c0,12.09-9.83,21.92-21.93,21.92h-20.12c-.34,0-.74,0-1.16,0-11.99-.12-21.7-9.9-21.7-21.92v-3.83c0-11.59,5.7-22.38,15.25-28.95Z"/>
    <path class="st1" d="M272.8,210.89c.06-.15.1-.31.1-.47,0-.65-.53-1.18-1.18-1.18h-20.84c-.48,0-.91.29-1.09.72-.07.15-.1.31-.1.47,0,.65.53,1.18,1.18,1.18h.85c.13.04.27.05.4.04.35-.02.7-.04,1.04-.04h.3c5.56.04,10.23,2.53,11.23,5.9h-13.5c-.48,0-.91.29-1.09.72-.06.15-.1.31-.1.47,0,.65.53,1.18,1.18,1.18h13.58c-.06.26-.14.51-.25.76-1.35,3.17-5.94,5.39-11.17,5.39-.69,0-1.37-.04-2.03-.11-.48-.04-.93.19-1.16.6-.08.14-.13.3-.15.45-.04.31.05.62.25.87.2.25.48.4.79.44.13.01.25.03.38.04l12.98,15.04c.22.26.55.41.89.41.28,0,.55-.1.77-.29.12-.11.22-.23.29-.37.22-.43.15-.94-.16-1.31l-11.6-13.44c5.29-.34,9.95-2.76,11.79-6.22.39-.73.65-1.48.77-2.25h4.31c.48,0,.91-.29,1.09-.72.06-.15.1-.31.1-.47,0-.65-.53-1.18-1.18-1.18h-4.36c-.46-2.28-2.12-4.38-4.62-5.9h9.21c.48,0,.91-.29,1.09-.72Z"/>
    <path class="st1" d="M238.84,283.87c-2.22-2.18-7.06-5.04-9.53-6.64-1.57-1.02-8.8-7.44-9.42-1.94-.34,3,12.42,10.56,13.12,10.57,1.84.04,4.92-1.3,5.83-1.99Z"/>
    <path class="st1" d="M230.95,286.93l-.7-.69c-.28-.24-.47-.41-.63-.55-.02-.02-.04-.03-.07-.05l-18.43-11.57c-1.97-1.26-5.64-3.59-6.75-.35-1.12,3.27,8.54,8.3,10.99,9.99,7.86,5.41,4.68,5.76,15.59,3.23Z"/>
    <path class="st1" d="M188.82,277.34c1.25.96,2.75,2.01,4,2.94,2.69,2.01,5.36,3.78,8.15,5.7,1.73,1.19,6.51,5.22,8.07,5.58,1.98.45,9.62-.99,11.15-1.91l-24.44-16.36c-9.42-6.19-10.58,1.25-6.93,4.06Z"/>
    <path class="st1" d="M205.72,292.29l-25.71-17.13c-1.94-1.25-6.65-5.52-9.39-2.98-4.13,3.82,3.19,7.69,7.72,11.6,1.69,1.46,2.8,2.13,4.2,3.3,3.92,3.26,3.67,3.52,10.05,4.47,4.28.64,8.77,1.02,13.13.73Z"/>
    <path class="st1" d="M270.05,281.7c-23.5-.34-51.37,16.68-75.26,12.15-4.03-.76-6.55-2.18-9.73-2.96-6.28,10.77,7.74,14.28,17.44,15.36,13.67,1.52,20.95-1.6,32.98-3.73-7.62,4.99-20.07,7.64-30.89,6.63.7.79-.12.2,1.43,1.21l4.67,2.3c2.22.9,4.83,1.81,7.3,2.53,5.27,1.54,12.19,2.32,18.01,1.68,11.2-1.23,21.32-4.7,32.23-7.04,13.11-2.81,21.74-2.49,34.12,1.24,11.45,3.46,23.03,9.37,28.25,10.92l-11.8-12.98c-11.82-11.06-29.85-27.03-48.75-27.3Z"/>
    <path class="st1" d="M229.95,140.28c23.5.34,51.37-16.68,75.26-12.15,4.03.76,6.55,2.18,9.73,2.96,6.28-10.77-7.74-14.28-17.44-15.36-13.67-1.52-20.95,1.6-32.98,3.73,7.62-4.99,20.07-7.64,30.89-6.63-.7-.79.12-.2-1.43-1.2l-4.67-2.3c-2.22-.9-4.83-1.81-7.3-2.53-5.27-1.54-12.19-2.32-18.01-1.68-11.2,1.23-21.32,4.7-32.23,7.04-13.11,2.81-21.74,2.49-34.12-1.24-11.45-3.46-23.03-9.37-28.25-10.92l11.8,12.98c11.82,11.06,29.85,27.03,48.75,27.3Z"/>
    <path class="st1" d="M269.05,135.05l.7.69c.28.24.47.41.63.56.02.02.04.03.06.05l18.43,11.57c1.97,1.26,5.64,3.59,6.75.35,1.12-3.27-8.54-8.3-10.99-9.99-7.86-5.41-4.68-5.76-15.59-3.23Z"/>
    <path class="st1" d="M270.37,136.29c-2.56-2.03,1.7,1.52,0,0h0Z"/>
    <path class="st1" d="M261.16,138.11c2.22,2.18,7.06,5.04,9.53,6.64,1.57,1.02,8.8,7.44,9.42,1.94.34-3-12.42-10.56-13.12-10.57-1.84-.04-4.92,1.3-5.83,1.99Z"/>
    <path class="st1" d="M311.18,144.64c-1.25-.96-2.75-2.01-4-2.94-2.69-2.01-5.36-3.78-8.15-5.7-1.73-1.19-6.51-5.22-8.07-5.58-1.98-.45-9.62.99-11.15,1.91l24.44,16.36c9.42,6.19,10.58-1.25,6.93-4.06Z"/>
    <path class="st1" d="M294.28,129.69l25.71,17.13c1.94,1.25,6.65,5.52,9.39,2.98,4.13-3.82-3.19-7.69-7.72-11.6-1.69-1.46-2.8-2.13-4.2-3.3-3.92-3.26-3.67-3.52-10.05-4.47-4.28-.64-8.77-1.02-13.13-.73Z"/>
    <path class="st1" d="M331.91,187.57c-1.43-8.21-9.4-15.76-19.54-13.92-2.7.49-5.09,1.54-7.12,2.99-1-1.26-2.06-2.5-3.18-3.71-16.09-17.26-40.06-22.56-61.99-13.94-.83.33-1.79.48-2.68.48-12,.03-24.01.02-36.01.03-.62,0-1.28.02-1.87.19-1.01.3-1.46,1.09-1.38,2.13.08,1.06.7,1.69,1.72,1.88.47.09.97.05,1.45.05,9.14,0,18.27,0,27.41,0h1.86c-1.93,1.46-3.55,2.54-5.01,3.81-2.08,1.82-4.08,3.74-6.03,5.7-1,1-.89,2.27.04,3.1.85.77,2.06.71,3.01-.18.53-.5,1-1.06,1.53-1.56,12.66-12.28,27.75-17.51,45.17-14.68,13.74,2.23,25.16,9.5,32.85,19.52-3.18,3.73-4.66,8.74-3.78,13.8,1.17,6.74,6.71,12.98,14.32,14.04.41,6.02-.21,12.24-2.04,18.44-8.37,28.3-38.63,43.98-66.93,34.11-19.51-6.81-33.63-25.63-34.49-46.27-.45-10.83,2.14-20.88,7.87-30.11.93-1.5.82-2.75-.28-3.47-1.17-.76-2.37-.34-3.34,1.23-7.27,11.79-10.02,24.59-7.88,38.25,2.51,15.98,10.64,28.56,23.86,37.86.29.2.54.45,1.08.91h-3.68c-8.75,0-17.5,0-26.25,0-1.57,0-2.44.77-2.46,2.06-.02,1.31.83,2.1,2.37,2.19.39.02.78,0,1.17,0,11.91,0,23.82,0,35.72.02.85,0,1.76.13,2.54.44,10.14,4.05,20.58,5.04,31.32,3.14,22.15-3.91,40.57-22.08,44.7-44.17.48-2.57.79-5.17,1.17-7.75v-6.42c-.03-.16-.07-.32-.11-.48.32-.04.64-.06.97-.12,8.23-1.43,15.72-9.36,13.94-19.63ZM323.41,186.91c-1.73,1.74-3.48,3.47-5.21,5.21-.88.89-1.77,1.76-2.65,2.64-.51.51-2.88,3.16-3.62,3.1-.81-.06-3.64-3.13-4.24-3.72-.63-.62-2.09-1.89-2.49-2.57-.56-.94-.04-2.08,1.03-2.21,1.56-.19,3.89,3.75,5.51,4.45l.41.18,8.32-8.24c.69-.69,1.82-2.04,2.58-2.53.9-.57,2.14-.06,2.24,1.01.11,1.14-1.19,1.99-1.88,2.69Z"/>
  </g>
</svg>