<?xml version="1.0" encoding="UTF-8"?>
<svg id="Layer_1" xmlns="http://www.w3.org/2000/svg" version="1.1" viewBox="0 0 500 500">
  <!-- Generator: Adobe Illustrator 29.1.0, SVG Export Plug-In . SVG Version: 2.1.0 Build 142)  -->
  <defs>
    <style>
      .st0 {
        fill: #231f20;
      }

      .st1 {
        fill: #e9262a;
      }
    </style>
  </defs>
  <g>
    <g>
      <path class="st0" d="M49.86,344.12c1.72.88,4.35,1.76,7.07,1.76,2.93,0,4.48-1.21,4.48-3.06s-1.34-2.76-4.73-3.98c-4.69-1.63-7.74-4.23-7.74-8.33,0-4.81,4.02-8.49,10.67-8.49,3.18,0,5.52.67,7.2,1.42l-1.42,5.15c-1.13-.54-3.14-1.34-5.9-1.34s-4.1,1.26-4.1,2.72c0,1.8,1.59,2.59,5.23,3.98,4.98,1.84,7.32,4.43,7.32,8.41,0,4.73-3.64,8.75-11.38,8.75-3.22,0-6.4-.84-7.99-1.72l1.3-5.27Z"/>
      <path class="st0" d="M89.04,338.76h-10.38v6.69h11.59v5.23h-17.99v-28.21h17.41v5.23h-11.01v5.86h10.38v5.19Z"/>
      <path class="st0" d="M115.32,349.89c-1.17.59-3.81,1.21-7.24,1.21-9.75,0-14.77-6.07-14.77-14.1,0-9.63,6.86-14.98,15.4-14.98,3.31,0,5.82.67,6.95,1.26l-1.3,5.06c-1.3-.54-3.1-1.05-5.36-1.05-5.06,0-9,3.05-9,9.33,0,5.65,3.35,9.21,9.04,9.21,1.93,0,4.06-.42,5.31-.92l.96,4.98Z"/>
      <path class="st0" d="M125.87,322.48v16.24c0,4.85,1.84,7.32,5.11,7.32s5.19-2.34,5.19-7.32v-16.24h6.36v15.82c0,8.7-4.39,12.85-11.76,12.85s-11.3-3.93-11.3-12.93v-15.73h6.4Z"/>
      <path class="st0" d="M148.06,322.86c2.05-.34,5.1-.59,8.49-.59,4.18,0,7.11.63,9.12,2.22,1.67,1.34,2.59,3.31,2.59,5.9,0,3.6-2.55,6.07-4.98,6.95v.13c1.97.8,3.06,2.68,3.77,5.27.88,3.18,1.76,6.86,2.3,7.95h-6.53c-.46-.8-1.13-3.1-1.97-6.57-.75-3.52-1.97-4.48-4.56-4.52h-1.92v11.09h-6.32v-27.83ZM154.38,334.99h2.51c3.18,0,5.06-1.59,5.06-4.06,0-2.6-1.76-3.89-4.69-3.93-1.55,0-2.43.13-2.89.21v7.78Z"/>
      <path class="st0" d="M189.66,338.76h-10.38v6.69h11.59v5.23h-17.99v-28.21h17.41v5.23h-11.01v5.86h10.38v5.19Z"/>
      <path class="st0" d="M195.23,322.86c2.34-.38,5.4-.59,8.62-.59,5.36,0,8.83.96,11.55,3.01,2.93,2.18,4.77,5.65,4.77,10.63,0,5.4-1.97,9.12-4.69,11.43-2.97,2.47-7.49,3.64-13.02,3.64-3.31,0-5.65-.21-7.24-.42v-27.7ZM201.64,345.87c.54.13,1.42.13,2.22.13,5.77.04,9.54-3.14,9.54-9.88.04-5.86-3.39-8.96-8.87-8.96-1.42,0-2.34.13-2.89.25v18.45Z"/>
      <path class="st0" d="M232.82,322.86c1.68-.34,5.06-.59,8.24-.59,3.89,0,6.28.38,8.33,1.59,1.97,1.05,3.39,2.97,3.39,5.52s-1.47,4.86-4.65,6.03v.08c3.22.88,5.61,3.31,5.61,6.95,0,2.55-1.17,4.56-2.93,5.98-2.05,1.63-5.48,2.55-11.09,2.55-3.14,0-5.48-.21-6.9-.42v-27.7ZM239.14,333.65h2.09c3.35,0,5.15-1.38,5.15-3.47s-1.63-3.26-4.52-3.26c-1.38,0-2.18.08-2.72.17v6.57ZM239.14,346.17c.63.08,1.38.08,2.47.08,2.89,0,5.44-1.09,5.44-4.06s-2.55-3.98-5.73-3.98h-2.18v7.95Z"/>
      <path class="st0" d="M264.46,322.48v16.24c0,4.85,1.84,7.32,5.11,7.32s5.19-2.34,5.19-7.32v-16.24h6.36v15.82c0,8.7-4.39,12.85-11.76,12.85s-11.3-3.93-11.3-12.93v-15.73h6.4Z"/>
      <path class="st0" d="M286.86,344.12c1.72.88,4.35,1.76,7.07,1.76,2.93,0,4.48-1.21,4.48-3.06s-1.34-2.76-4.73-3.98c-4.69-1.63-7.74-4.23-7.74-8.33,0-4.81,4.02-8.49,10.67-8.49,3.18,0,5.52.67,7.2,1.42l-1.42,5.15c-1.13-.54-3.14-1.34-5.9-1.34s-4.1,1.26-4.1,2.72c0,1.8,1.59,2.59,5.23,3.98,4.98,1.84,7.32,4.43,7.32,8.41,0,4.73-3.64,8.75-11.38,8.75-3.22,0-6.4-.84-7.99-1.72l1.3-5.27Z"/>
      <path class="st0" d="M315.66,322.48v28.21h-6.4v-28.21h6.4Z"/>
      <path class="st0" d="M321.18,350.69v-28.21h7.45l5.86,10.34c1.68,2.97,3.35,6.49,4.6,9.67h.13c-.42-3.72-.54-7.53-.54-11.76v-8.24h5.86v28.21h-6.7l-6.03-10.88c-1.67-3.01-3.51-6.65-4.9-9.96l-.13.04c.17,3.73.25,7.7.25,12.3v8.49h-5.86Z"/>
      <path class="st0" d="M366.84,338.76h-10.38v6.69h11.59v5.23h-17.99v-28.21h17.41v5.23h-11.01v5.86h10.38v5.19Z"/>
      <path class="st0" d="M372.62,344.12c1.72.88,4.35,1.76,7.07,1.76,2.93,0,4.48-1.21,4.48-3.06s-1.34-2.76-4.73-3.98c-4.69-1.63-7.74-4.23-7.74-8.33,0-4.81,4.02-8.49,10.67-8.49,3.18,0,5.52.67,7.2,1.42l-1.42,5.15c-1.13-.54-3.14-1.34-5.9-1.34s-4.1,1.26-4.1,2.72c0,1.8,1.59,2.59,5.23,3.98,4.98,1.84,7.32,4.43,7.32,8.41,0,4.73-3.64,8.75-11.38,8.75-3.22,0-6.4-.84-7.99-1.72l1.3-5.27Z"/>
      <path class="st0" d="M395.23,344.12c1.72.88,4.35,1.76,7.07,1.76,2.93,0,4.48-1.21,4.48-3.06s-1.34-2.76-4.73-3.98c-4.69-1.63-7.74-4.23-7.74-8.33,0-4.81,4.02-8.49,10.67-8.49,3.18,0,5.52.67,7.2,1.42l-1.42,5.15c-1.13-.54-3.14-1.34-5.9-1.34s-4.1,1.26-4.1,2.72c0,1.8,1.59,2.59,5.23,3.98,4.98,1.84,7.32,4.43,7.32,8.41,0,4.73-3.64,8.75-11.38,8.75-3.22,0-6.4-.84-7.99-1.72l1.3-5.27Z"/>
      <path class="st0" d="M444.03,350.69c-.59-.63-1.17-1.26-1.84-2.01-1.84,1.42-4.39,2.47-7.74,2.47-6.82,0-9.83-4.06-9.83-7.99,0-3.72,2.13-6.4,5.36-8.08v-.17c-1.21-1.34-2.14-3.43-2.14-5.44,0-3.56,2.8-7.45,8.45-7.45,4.35,0,7.66,2.55,7.66,6.61,0,2.85-1.68,5.27-5.57,7.24l-.04.17c1.63,1.8,3.35,3.85,4.73,5.27,1.13-1.76,2.01-4.35,2.39-6.86h5.69c-.75,4.27-2.18,7.91-4.69,10.71,1.59,1.8,3.22,3.64,4.98,5.52h-7.41ZM439.22,345.12c-1.76-1.76-4.06-4.31-6.36-6.91-1.17.84-2.22,2.05-2.22,3.89,0,2.39,1.8,4.44,4.69,4.44,1.67,0,3.05-.63,3.89-1.42ZM433.52,328.88c0,1.42.67,2.68,1.93,4.06,2.05-1.42,3.1-2.51,3.1-4.14,0-1.34-.8-2.8-2.47-2.8s-2.55,1.42-2.55,2.89Z"/>
    </g>
    <g>
      <path class="st0" d="M83.4,371.71c1.97-.33,4.73-.59,8.62-.59s6.74.75,8.62,2.26c1.8,1.42,3.01,3.77,3.01,6.53s-.92,5.11-2.59,6.7c-2.18,2.05-5.4,2.97-9.16,2.97-.84,0-1.59-.04-2.18-.13v10.09h-6.32v-27.83ZM89.72,384.52c.54.13,1.21.17,2.13.17,3.39,0,5.48-1.72,5.48-4.6,0-2.59-1.8-4.14-4.98-4.14-1.3,0-2.18.13-2.64.25v8.33Z"/>
      <path class="st0" d="M124.5,387.61h-10.38v6.7h11.59v5.23h-17.99v-28.21h17.41v5.23h-11.01v5.86h10.38v5.19Z"/>
      <path class="st0" d="M130.07,371.71c2.05-.33,5.11-.59,8.49-.59,4.19,0,7.11.63,9.12,2.22,1.68,1.34,2.6,3.31,2.6,5.9,0,3.6-2.55,6.07-4.98,6.94v.13c1.97.8,3.05,2.68,3.77,5.27.88,3.18,1.76,6.86,2.3,7.95h-6.53c-.46-.8-1.13-3.1-1.97-6.57-.75-3.51-1.97-4.48-4.56-4.52h-1.93v11.09h-6.32v-27.83ZM136.39,383.85h2.51c3.18,0,5.06-1.59,5.06-4.06,0-2.59-1.76-3.89-4.69-3.93-1.55,0-2.43.13-2.89.21v7.78Z"/>
      <path class="st0" d="M155.1,392.97c1.72.88,4.35,1.76,7.07,1.76,2.93,0,4.48-1.21,4.48-3.05s-1.34-2.76-4.73-3.98c-4.69-1.63-7.74-4.23-7.74-8.33,0-4.81,4.02-8.49,10.67-8.49,3.18,0,5.52.67,7.2,1.42l-1.42,5.15c-1.13-.54-3.14-1.34-5.9-1.34s-4.1,1.26-4.1,2.72c0,1.8,1.59,2.6,5.23,3.98,4.98,1.84,7.32,4.44,7.32,8.41,0,4.73-3.64,8.75-11.38,8.75-3.22,0-6.4-.84-7.99-1.72l1.3-5.27Z"/>
      <path class="st0" d="M398.52,392.97c1.72.88,4.35,1.76,7.07,1.76,2.93,0,4.48-1.21,4.48-3.05s-1.34-2.76-4.73-3.98c-4.69-1.63-7.74-4.23-7.74-8.33,0-4.81,4.02-8.49,10.67-8.49,3.18,0,5.52.67,7.2,1.42l-1.42,5.15c-1.13-.54-3.14-1.34-5.9-1.34s-4.1,1.26-4.1,2.72c0,1.8,1.59,2.6,5.23,3.98,4.98,1.84,7.32,4.44,7.32,8.41,0,4.73-3.64,8.75-11.38,8.75-3.22,0-6.4-.84-7.99-1.72l1.3-5.27Z"/>
      <path class="st0" d="M203.32,385.14c0,9.25-5.61,14.86-13.85,14.86s-13.27-6.32-13.27-14.35c0-8.45,5.4-14.77,13.73-14.77s13.39,6.49,13.39,14.27ZM182.93,385.52c0,5.52,2.6,9.42,6.86,9.42s6.78-4.1,6.78-9.58c0-5.06-2.43-9.42-6.82-9.42s-6.82,4.1-6.82,9.58Z"/>
      <path class="st0" d="M207.51,399.54v-28.21h7.45l5.86,10.34c1.68,2.97,3.35,6.49,4.6,9.67h.13c-.42-3.73-.54-7.53-.54-11.76v-8.24h5.86v28.21h-6.7l-6.03-10.88c-1.67-3.01-3.51-6.65-4.9-9.96l-.13.04c.17,3.72.25,7.7.25,12.3v8.49h-5.86Z"/>
      <path class="st0" d="M242.96,392.3l-2.01,7.24h-6.61l8.62-28.21h8.37l8.75,28.21h-6.86l-2.18-7.24h-8.08ZM250.11,387.53l-1.76-5.98c-.5-1.67-1-3.77-1.42-5.44h-.08c-.42,1.67-.84,3.81-1.3,5.44l-1.67,5.98h6.23Z"/>
      <path class="st0" d="M263.85,371.33h6.4v22.85h11.21v5.36h-17.62v-28.21Z"/>
      <path class="st0" d="M293.69,371.33h6.4v22.85h11.22v5.36h-17.62v-28.21Z"/>
      <path class="st0" d="M339.31,385.14c0,9.25-5.61,14.86-13.85,14.86s-13.27-6.32-13.27-14.35c0-8.45,5.4-14.77,13.73-14.77s13.39,6.49,13.39,14.27ZM318.93,385.52c0,5.52,2.6,9.42,6.86,9.42s6.78-4.1,6.78-9.58c0-5.06-2.43-9.42-6.82-9.42s-6.82,4.1-6.82,9.58Z"/>
      <path class="st0" d="M349.4,392.3l-2.01,7.24h-6.61l8.62-28.21h8.37l8.75,28.21h-6.86l-2.18-7.24h-8.08ZM356.56,387.53l-1.76-5.98c-.5-1.67-1-3.77-1.42-5.44h-.08c-.42,1.67-.84,3.81-1.3,5.44l-1.67,5.98h6.23Z"/>
      <path class="st0" d="M370.29,399.54v-28.21h7.45l5.86,10.34c1.67,2.97,3.35,6.49,4.6,9.67h.13c-.42-3.73-.54-7.53-.54-11.76v-8.24h5.86v28.21h-6.69l-6.03-10.88c-1.68-3.01-3.52-6.65-4.9-9.96l-.13.04c.17,3.72.25,7.7.25,12.3v8.49h-5.86Z"/>
    </g>
  </g>
  <g>
    <path class="st1" d="M346.42,163.91c-5.27-12.46-12.82-23.65-22.42-33.26-9.61-9.61-20.8-17.15-33.26-22.42-12.9-5.46-26.61-8.23-40.74-8.23s-27.83,2.77-40.73,8.23c-12.46,5.27-23.65,12.82-33.26,22.42-9.61,9.61-17.15,20.8-22.43,33.26-5.46,12.9-8.23,26.61-8.23,40.73s2.77,27.83,8.23,40.74c5.27,12.46,12.82,23.65,22.43,33.26,1.76,1.76,4.61,1.76,6.36,0,1.76-1.76,1.76-4.61,0-6.36-8.79-8.79-15.68-19.01-20.5-30.4-4.98-11.79-7.51-24.31-7.51-37.23s2.53-25.44,7.51-37.23c4.82-11.39,11.71-21.62,20.5-30.4,8.78-8.78,19.01-15.68,30.4-20.5,11.79-4.99,24.31-7.51,37.23-7.51s25.44,2.53,37.23,7.51c11.39,4.82,21.62,11.71,30.4,20.5,8.78,8.79,15.68,19.01,20.5,30.4,4.99,11.79,7.51,24.31,7.51,37.23s-2.53,25.44-7.51,37.23c-4.82,11.39-11.72,21.62-20.5,30.4-1.76,1.76-1.76,4.61,0,6.36.88.88,2.03,1.32,3.18,1.32s2.3-.44,3.18-1.32c9.61-9.61,17.15-20.8,22.42-33.26,5.46-12.9,8.23-26.61,8.23-40.74s-2.77-27.83-8.23-40.73Z"/>
    <path class="st1" d="M281.03,137.29c0-1.74-1.41-3.15-3.15-3.15s-3.15,1.41-3.15,3.15v14.43l-22.4-21.47c-1.3-1.24-3.34-1.24-4.64,0l-52.08,49.91c-1.34,1.28-1.38,3.41-.1,4.74,1.28,1.34,3.4,1.38,4.74.1l49.76-47.69,49.76,47.69c.65.62,1.49.93,2.32.93.88,0,1.76-.35,2.42-1.03,1.28-1.34,1.24-3.46-.1-4.74l-23.39-22.42s.01-.08.01-.12v-20.34Z"/>
    <path class="st1" d="M259.02,229.99h25.79c1.85,0,3.35-1.5,3.35-3.35v-41.53c0-1.85-1.5-3.36-3.35-3.36s-3.36,1.5-3.36,3.36v38.17h-19.08v-26.63c0-1.85-1.5-3.36-3.35-3.36h-1.97c-.06-.1-.11-.2-.19-.29l-12.14-15.1c6.69-1.04,11.93-4.97,13.22-9.92h3.99c1.38,0,2.5-1.12,2.5-2.5s-1.12-2.5-2.5-2.5h-4.07c-.53-1.81-1.6-3.46-3.07-4.89h7.41c1.38,0,2.5-1.12,2.5-2.5s-1.12-2.5-2.5-2.5h-23.82c-1.38,0-2.5,1.12-2.5,2.5s1.12,2.5,2.5,2.5h.82c.23.05.46.07.68.05.43-.03.87-.04,1.32-.04,5.05,0,9.47,2.07,11.23,4.89h-13.69c-1.38,0-2.5,1.12-2.5,2.5s1.12,2.5,2.5,2.5h13.88c-1.83,3.4-7.48,5.79-13.68,5.06-1.41-.07-2.51.86-2.69,2.2-.08.66.1,1.32.52,1.84.4.51.97.83,1.61.93l12.29,15.28h-9.69c-1.85,0-3.36,1.5-3.36,3.36v26.63h-19.08v-38.17c0-1.85-1.5-3.36-3.35-3.36s-3.36,1.5-3.36,3.36v41.53c0,1.85,1.5,3.35,3.36,3.35h25.79c1.85,0,3.35-1.5,3.35-3.35v-26.64h11.33v26.64c0,1.85,1.5,3.35,3.36,3.35Z"/>
    <path class="st1" d="M299.93,288.54l21.77-28.37c.66-.99,1.83-2.85,2.19-4.09.47-1.65.31-4.78.17-6.55l-3.78-39.73c-.25-2.52-1.86-4.76-4.4-6.15-2.16-1.17-4.87-1.66-7.62-1.4-2.75.28-5.31,1.3-7.19,2.88-2.22,1.86-3.35,4.38-3.11,6.71l.9,21.17c-1.67.34-3.16,1.1-4.22,2.34l-17.07,19.78c-11.73,2.52-19.78,7.89-23.94,15.98-5.72,11.14-2.17,23.96-.31,29.11-2.2.07-4.41.07-6.61,0,1.86-5.15,5.42-17.98-.3-29.11-4.15-8.09-12.21-13.46-23.94-15.98l-17.07-19.77c-1.06-1.23-2.54-2.03-4.23-2.37l.88-20.95c.26-2.53-.87-5.04-3.1-6.9-1.89-1.58-4.44-2.6-7.2-2.88-6.25-.63-11.53,2.69-12.02,7.56l-3.78,39.76c-.14,1.72-.3,4.86.18,6.5.35,1.24,1.52,3.1,2.31,4.28l21.64,28.19-.69,4.95c-.25,1.83,1.03,3.53,2.86,3.79.16.02.31.03.47.03,1.65,0,3.08-1.21,3.32-2.89l.88-6.34c.12-.89-.12-1.79-.66-2.51l-22.37-29.12c-.51-.77-1.2-1.92-1.3-2.16-.11-.52-.08-2.51.04-4.12l3.78-39.69c.06-.61,1.88-1.81,4.68-1.53,1.41.14,2.7.63,3.56,1.35.53.45.75.86.71,1.28l-.95,22.43c-1.12.54-2.19,1.25-3.19,2.11-2.09,1.81-3.59,4.11-4.23,6.49-.75,2.8-.22,5.51,1.43,7.42l19.79,22.93c1.21,1.4,3.33,1.56,4.73.35,1.4-1.21,1.56-3.33.35-4.73l-19.8-22.93c-.14-.16-.21-.63-.03-1.3.29-1.08,1.06-2.22,2.13-3.14,1.55-1.34,3.12-1.73,4.02-1.67.33.03.58.11.69.24l17.82,20.64c.49.57,1.16.96,1.9,1.1,10.22,1.99,17.08,6.25,20.38,12.66,5.72,11.08-.66,25.44-.73,25.57,0,0,0,0,0,0-3.01-.32-6-.78-8.95-1.38-2.43-.5-4.81,1.07-5.31,3.51-.5,2.44,1.07,4.81,3.51,5.31,6.89,1.41,13.98,2.13,21.08,2.13s14.19-.72,21.08-2.13c2.44-.5,4.01-2.88,3.51-5.31-.5-2.43-2.88-4.01-5.31-3.51-2.95.6-5.94,1.06-8.96,1.38,0,0,0,0,0,0-.06-.14-6.46-14.4-.74-25.55,3.3-6.43,10.17-10.7,20.4-12.69.74-.14,1.41-.53,1.9-1.1l17.83-20.64c.14-.16.6-.29,1.29-.22,1.11.13,2.35.73,3.42,1.65,1.07.92,1.84,2.07,2.13,3.15.18.67.11,1.15-.03,1.31l-19.79,22.93c-1.21,1.4-1.05,3.52.35,4.73,1.4,1.21,3.52,1.05,4.73-.35l19.79-22.93c1.66-1.92,2.18-4.62,1.43-7.43-.63-2.38-2.13-4.68-4.23-6.49-.99-.85-2.07-1.54-3.19-2.08l-.97-22.64c-.02-.22.2-.64.73-1.08.85-.72,2.15-1.21,3.56-1.35,1.41-.14,2.77.08,3.75.62.61.33.91.71.93.9l3.77,39.66c.13,1.69.16,3.65.09,4.04-.13.33-.73,1.36-1.28,2.21l-22.43,29.21c-.55.71-.78,1.62-.66,2.5l.88,6.34c.23,1.68,1.67,2.9,3.32,2.9.15,0,.31-.01.46-.03,1.84-.26,3.12-1.95,2.86-3.79l-.69-4.95Z"/>
  </g>
</svg>