<?xml version="1.0" encoding="UTF-8"?><svg id="b" xmlns="http://www.w3.org/2000/svg" viewBox="0 0 40 40"><defs><style>.c{fill:#ed1c24;stroke-width:0px;}</style></defs><path class="c" d="M31.58,26.67c-.25-.13-.56-.04-.69.21-.94,1.75-2.29,3.29-3.9,4.46-.23.17-.28.49-.11.72.1.14.26.21.41.21.1,0,.21-.03.3-.1,1.73-1.26,3.18-2.92,4.19-4.8.13-.25.04-.56-.21-.69Z"/><path class="c" d="M25.19,8.69c2.3,1.17,4.2,2.97,5.49,5.2.1.16.27.26.44.26.09,0,.18-.02.26-.07.24-.14.33-.46.19-.7-1.4-2.4-3.44-4.34-5.91-5.6-.25-.13-.56-.03-.69.22-.13.25-.03.56.22.69Z"/><path class="c" d="M6.7,14.53c.08.04.16.06.24.06.18,0,.36-.1.45-.27,1.32-2.48,3.44-4.52,5.97-5.75.25-.12.36-.43.24-.68-.12-.25-.43-.36-.68-.24-2.72,1.32-5.01,3.52-6.43,6.19-.13.25-.04.56.21.69Z"/><path class="c" d="M11.84,31.7c-1.73-1.14-3.18-2.68-4.22-4.47-.14-.25-.46-.33-.7-.19-.25.14-.33.46-.19.7,1.11,1.92,2.68,3.59,4.54,4.81.09.06.18.08.28.08.17,0,.33-.08.43-.23.16-.24.09-.55-.15-.71Z"/><path class="c" d="M24.89,20.5c-.02-.44-.05-.89-.09-1.33-.05-.66-.35-.98-1.02-1.09l-.25-.04.11-.2c.35-.65.28-1.04-.26-1.52-.32-.29-.65-.57-.97-.85-.5-.43-.92-.45-1.46-.06l-.23.17-.09-.29c-.19-.61-.54-.86-1.18-.82-.32.02-.65.04-.97.06l-.29.02c-.78.05-1.07.32-1.19,1.1,0,.06-.02.11-.03.17-.09-.05-.19-.1-.28-.15-.55-.29-.98-.21-1.39.24-.31.35-.62.7-.92,1.05-.41.47-.43.92-.06,1.44l.17.24-.25.07c-.66.2-.91.56-.87,1.25.02.29.04.59.06.88.05.75.57,1.36,1.3,1.53l-.15.28c-.29.56-.21.99.26,1.41.34.3.68.6,1.03.9.47.41.92.43,1.43.07l.25-.17c.21.66.81,1.09,1.5,1.09.03,0,.07,0,.1,0,.35-.02.71-.05,1.06-.07.6-.05.93-.35,1.04-.95l.05-.31c.09.05.18.1.28.15.54.28.99.2,1.39-.24.31-.35.62-.7.92-1.05.41-.48.43-.91.06-1.44-.06-.08-.11-.16-.17-.24.09-.03.18-.06.27-.08.62-.19.87-.55.83-1.2ZM23.87,20.69s-.06.02-.11.04c-.13.04-.25.08-.38.12-.29.09-.52.31-.62.6s-.05.61.13.85c.08.11.16.22.24.33.03.04.05.08.06.1-.01.02-.03.04-.06.08-.3.35-.6.69-.91,1.03-.03.03-.05.05-.06.06-.02,0-.05-.02-.09-.04-.12-.07-.25-.13-.37-.2-.27-.14-.59-.15-.86-.02-.27.13-.46.39-.51.69l-.07.42s-.02.08-.02.1c-.02,0-.05,0-.08,0-.35.03-.7.05-1.05.07-.25.02-.48-.14-.56-.39l-.03-.09c-.09-.29-.31-.51-.59-.61-.1-.03-.2-.05-.3-.05-.19,0-.38.06-.54.17l-.34.24s-.08.05-.1.06c-.02-.01-.04-.03-.08-.06-.34-.29-.68-.59-1.01-.89-.04-.03-.06-.06-.08-.08,0-.02.02-.05.04-.09l.2-.37c.14-.27.15-.59.02-.86-.13-.27-.39-.46-.67-.51h-.04c-.3-.06-.53-.31-.55-.62-.02-.29-.04-.59-.06-.88,0-.08,0-.13,0-.15.02-.01.07-.03.14-.05l.37-.11c.29-.09.52-.31.61-.6.1-.29.05-.6-.13-.85l-.24-.33s-.05-.08-.06-.1c.01-.02.03-.04.06-.08.3-.35.6-.69.91-1.04.03-.03.05-.05.06-.06.02,0,.05.02.09.04.15.08.31.16.46.24l.31.16c.3.19.52.13.66.04l.29-.22-.04-.25.03-.2c.03-.18.06-.36.09-.55.02-.11.03-.18.04-.22.04,0,.1-.01.2-.02l.29-.02c.32-.02.64-.04.96-.06.05,0,.08,0,.11,0,0,.02.02.05.03.1l.12.4c.09.29.31.52.6.61.29.1.6.05.85-.13l.32-.23s.08-.06.1-.07c.02.01.05.04.09.07.32.28.65.56.97.85.06.05.09.08.11.11-.01.03-.04.08-.08.16l-.17.31c-.14.27-.15.58-.01.85.13.27.39.46.69.51l.37.06c.07.01.12.02.15.03,0,.03.01.06.01.12.03.44.06.87.09,1.31,0,.06,0,.1,0,.13Z"/><path class="c" d="M20.62,18.13c0-.17-.13-.3-.31-.3-.78,0-1.56,0-2.34,0-.18,0-.31.13-.31.3,0,.17.13.3.32.3.2,0,.4,0,.6,0,.37.01.63.19.79.52.01.02.02.04.03.07h-.1c-.43,0-.86,0-1.29,0-.03,0-.06,0-.08,0-.17.01-.3.17-.27.34.03.15.14.25.31.25.44,0,.88,0,1.32,0h.08s-.01.04-.02.06c-.16.33-.42.51-.78.53-.2.01-.4,0-.6,0-.06,0-.14.02-.19.06-.16.1-.17.32-.03.46.58.59,1.17,1.17,1.76,1.76,0,0,.02.02.03.02.17.15.42.07.48-.15.03-.12,0-.22-.09-.3-.37-.37-.74-.74-1.11-1.1-.05-.05-.1-.09-.16-.15.06,0,.09-.01.13-.02.62-.13,1.02-.5,1.19-1.11.01-.05.03-.06.08-.06.09,0,.18,0,.27,0,.17,0,.29-.13.29-.29,0-.16-.13-.29-.29-.3-.09,0-.18,0-.27,0-.04,0-.06-.01-.07-.05-.04-.18-.11-.34-.22-.49,0-.01-.02-.03-.03-.05.19,0,.38,0,.57,0,.18,0,.32-.13.32-.3Z"/><path class="c" d="M13.12,11.26v1.22c0,.45.36.81.81.81h10.19c.45,0,.81-.36.81-.81v-1.22c0-.45-.36-.81-.81-.81h-.44v-4.42c0-.44-.23-.85-.61-1.07l-3.4-2c-.37-.22-.84-.23-1.23-.02l-3.25,1.78c-.4.22-.65.64-.65,1.09v4.65h-.6c-.45,0-.81.36-.81.81ZM15.56,5.8c0-.08.04-.15.11-.19l3.25-1.78c.07-.04.15-.04.21,0l3.4,2c.07.04.11.11.11.19v4.42h-1.05v-2.44c0-.59-.48-1.07-1.07-1.07h-2.83c-.59,0-1.07.48-1.07,1.07v2.44h-1.06v-4.65ZM20.58,10.45h-2.93v-2.44s.02-.05.05-.05h2.83s.05.02.05.05v2.44ZM14.15,11.48h9.76v.79h-9.76v-.79Z"/><path class="c" d="M36.68,23h-.75v-4.37s-.02-.36-.02-.36l-3.47-1.59c-.17-.08-.36-.07-.52.03l-.25.18v1.05s-2.02-1.03-2.02-1.03v-1.91c0-.6-.48-1.08-1.08-1.08h-1.41c-.6,0-1.08.48-1.08,1.08v8h-.51c-.45,0-.82.37-.82.82v1.2c0,.45.37.82.82.82h11.1c.45,0,.82-.37.82-.82v-1.2c0-.45-.37-.82-.82-.82ZM34.9,18.94v4.06s-2.22,0-2.22,0v-5.07s2.22,1.01,2.22,1.01ZM31.67,19.09v3.91h-2.01v-4.94l2.01,1.03ZM27.11,14.99s.02-.06.06-.06h1.41s.06.02.06.06v8h-1.52v-8ZM36.47,24.81h-10.7v-.79h10.7v.79Z"/><path class="c" d="M11.72,23.54c0-1.58-1.07-2.92-2.52-3.33.51-.53.83-1.25.83-2.04,0-1.63-1.32-2.95-2.95-2.95s-2.95,1.32-2.95,2.95c0,.8.32,1.52.84,2.06-1.42.43-2.46,1.76-2.46,3.32v2.46h9.22v-2.46ZM7.07,16.24c1.06,0,1.92.86,1.92,1.92,0,.98-.73,1.78-1.68,1.91h-.5c-.94-.12-1.68-.93-1.68-1.91,0-1.06.86-1.92,1.92-1.92ZM10.69,24.98H3.53v-1.44c0-1.35,1.1-2.44,2.44-2.44h.78c.1.01.21.02.32.02s.21,0,.32-.02h.86c1.35,0,2.44,1.1,2.44,2.44v1.44Z"/><path class="c" d="M25.61,32.16h-.69l-.97-2.24c-.14-.33-.47-.55-.83-.55h-2.14v-.08c0-.59-.48-1.07-1.07-1.07h-5.89c-.59,0-1.07.48-1.07,1.07v5.18c0,.59.48,1.07,1.07,1.07h.51c.16.9.95,1.58,1.89,1.58s1.71-.67,1.88-1.55l3,.04c.15.91.94,1.6,1.89,1.6s1.71-.67,1.89-1.56h.49s0,0,0,0c.5,0,.9-.4.91-.9l.02-1.68c0-.25-.09-.48-.26-.65-.17-.17-.4-.27-.65-.27ZM13.99,34.47v-5.18s.02-.04.04-.04h5.89s.04.02.04.04v.42c-.02.05-.03.11-.03.17s.01.12.03.17v4.41s-.02.04-.04.04h-1.69c-.28-.72-.97-1.24-1.79-1.24s-1.52.52-1.79,1.24h-.61s-.04-.02-.04-.04ZM16.43,36.09c-.49,0-.9-.4-.9-.9s.4-.9.9-.9.9.4.9.9-.4.9-.9.9ZM23.21,36.19c-.49,0-.9-.4-.9-.9s.4-.9.9-.9.9.4.9.9-.4.9-.9.9ZM25.48,34.64h-.46c-.27-.74-.97-1.27-1.8-1.27s-1.5.5-1.78,1.21h-.45s.01-.07.01-.11v-4.07h2.06l.97,2.24c.14.33.47.55.84.55h.64l-.02,1.45Z"/></svg>